<?xml version="1.0" encoding="utf-8"?><!-- Uploaded to: SVG Repo, www.svgrepo.com, Generator: SVG Repo Mixer Tools -->
<svg width="30px" height="30px" viewBox="0 0 24 24" fill="none" xmlns="http://www.w3.org/2000/svg">
<path d="M9.5 3C11.9853 3 14 7.02944 14 12M9.5 3C7.01472 3 5 7.02944 5 12C5 16.9706 7.01472 21 9.5 21M9.5 3H15C17.2091 3 19 7.02944 19 12M14 12C14 16.9706 11.9853 21 9.5 21M14 12H19M9.5 21H15C17.2091 21 19 16.9706 19 12M18.3264 17H13.2422M18.3264 7H13.2422M9.5 8C10.3284 8 11 9.79086 11 12C11 14.2091 10.3284 16 9.5 16C8.67157 16 8 14.2091 8 12C8 9.79086 8.67157 8 9.5 8Z" stroke="#f2f2f2" stroke-width="2" stroke-linecap="round" stroke-linejoin="round"/>
</svg>